<svg xmlns="http://www.w3.org/2000/svg" xmlns:xlink="http://www.w3.org/1999/xlink" viewBox="0 0 74.36 96.92"><defs><style>.cls-1{fill:#fff;filter:url(#luminosity-invert-noclip);}.cls-2{fill:none;}.cls-3{mask:url(#mask);}.cls-4{fill:#49b84a;}.cls-5{clip-path:url(#clip-path);}.cls-6{fill:#0e9d4b;}.cls-7{clip-path:url(#clip-path-2);}</style><filter id="luminosity-invert-noclip" x="0" y="0" width="74.36" height="96.92" filterUnits="userSpaceOnUse" color-interpolation-filters="sRGB"><feColorMatrix values="-1 0 0 0 1 0 -1 0 0 1 0 0 -1 0 1 0 0 0 1 0" result="invert"/><feFlood flood-color="#fff" result="bg"/><feBlend in="invert" in2="bg"/></filter><mask id="mask" x="0" y="0" width="74.36" height="96.92" maskUnits="userSpaceOnUse"><circle class="cls-1" cx="36.48" cy="52.25" r="22"/></mask><clipPath id="clip-path"><rect class="cls-2" x="2" width="46.97" height="96.9"/></clipPath><clipPath id="clip-path-2"><rect class="cls-2" x="12.48" y="30.25" width="51" height="51"/></clipPath></defs><title>Fichier 7</title><g id="Calque_2" data-name="Calque 2"><g id="Calque_1-2" data-name="Calque 1"><g class="cls-3"><path class="cls-4" d="M66.3,79.2c-4,5.68-12.28,10.88-20.57,14.16-.57.23-1.14.44-1.7.64a53.83,53.83,0,0,1-5.85,1.79l-1,.24a30,30,0,0,1-8.36.85s.62-1,1.5-2.88c.1-.21.2-.42.3-.65A59,59,0,0,0,34.72,81c0-.11.05-.21.07-.32,1.83-8.78,1.91-20-4.55-30.51a37.62,37.62,0,0,1-2.78-16.67c0-.34,0-.69.08-1,.59-6.66,3.09-14.5,9.64-22.41.32-.39.65-.78,1-1.17A62.92,62.92,0,0,1,47.91,0c-.7,7.78,7.4,21.31,13.25,25.15C63.47,28.29,86.1,50.92,66.3,79.2"/><g class="cls-5"><path class="cls-6" d="M46.12,50.21c-6.53,10.65-6.38,22-4.51,30.78,0,.07,0,.13,0,.2a60,60,0,0,0,4.07,12.17c-.57.23-1.14.44-1.7.64.88,1.84,1.5,2.88,1.5,2.88l-.31,0h0a36.66,36.66,0,0,1-7-1.11,55.62,55.62,0,0,1-7.56-2.44c-8.28-3.27-16.51-8.48-20.56-14.15-19.8-28.28,2.83-50.91,5.14-54C20.67,21.56,28.1,9.49,28.46,1.58a9.21,9.21,0,0,0,0-1.58,64,64,0,0,1,9.74,8.91C45.24,17,48,25,48.76,31.8c0,.3.06.59.08.88a37.76,37.76,0,0,1-2.72,17.53"/></g><path class="cls-4" d="M44,94c.88,1.84,1.5,2.88,1.5,2.88l-.31,0h0a30.83,30.83,0,0,1-8-.87,55.87,55.87,0,0,1-6.86-2c-8.84-3.21-17.93-8.74-22.26-14.8-19.8-28.28,2.83-50.91,5.14-54C19.05,21.31,27.15,7.78,26.44,0c.7.52,1.37,1.05,2,1.58a60,60,0,0,1,8.72,8.5,40.74,40.74,0,0,1,9.5,21.07c0,.22,0,.44.08.65a37.69,37.69,0,0,1-2.64,18.41c-6.58,10.73-6.38,22.13-4.46,31a.09.09,0,0,0,0,0A59.93,59.93,0,0,0,44,94"/><g class="cls-7"><path class="cls-6" d="M63.48,55.75A25.5,25.5,0,1,1,38,30.25a25.5,25.5,0,0,1,25.5,25.5"/></g></g></g></g></svg>